<svg id="Capa_1" enable-background="new 0 0 512 512" height="512" viewBox="0 0 512 512" width="512" xmlns="http://www.w3.org/2000/svg"><g><g><path d="m10 211v90c0 82.84 79.87 150 171 150 45.11 0 85.99-16.45 115.77-43.12 27.39-24.52 58.44-45.16 94.12-54.01 61.52-15.26 111.11-53.32 111.11-97.87v-90z" fill="#ffddcf"/><path d="m502 166c0 44.55-49.59 82.61-111.11 97.87-35.68 8.85-66.73 29.49-94.12 54.01-29.78 26.67-70.66 43.12-115.77 43.12-91.13 0-171-67.16-171-150s73.87-150 165-150h162c91.13 0 165 47.01 165 105z" fill="#ff7b79"/></g><g><path d="m140.472 112.056c-4.94-2.471-10.946-.468-13.416 4.472l-60 120c-2.47 4.94-.468 10.947 4.473 13.417 4.96 2.48 10.956.447 13.416-4.472l60-120c2.469-4.941.467-10.948-4.473-13.417z"/><path d="m221.528 309.944c4.94 2.47 10.947.466 13.416-4.472l90-180c2.47-4.94.468-10.947-4.473-13.417-4.94-2.471-10.946-.468-13.416 4.472l-90 180c-2.469 4.941-.467 10.948 4.473 13.417z"/><path d="m230.472 112.056c-4.94-2.471-10.946-.468-13.416 4.472l-90 180c-2.47 4.94-.468 10.947 4.473 13.417 4.94 2.47 10.947.466 13.416-4.472l90-180c2.469-4.941.467-10.948-4.473-13.417z"/><path d="m369.944 215.472 45-90c2.47-4.94.468-10.947-4.473-13.417-4.94-2.471-10.947-.468-13.416 4.472l-45 90c-2.47 4.94-.468 10.947 4.473 13.417 4.96 2.48 10.957.448 13.416-4.472z"/><circle cx="266" cy="61" r="10"/><path d="m337 51h-26c-5.522 0-10 4.477-10 10s4.478 10 10 10h26c63.909 0 155 31.496 155 95 0 36.791-42.568 73.045-103.518 88.164-33.072 8.204-65.254 26.608-98.385 56.267-29.21 26.161-67.955 40.569-109.097 40.569-87.271 0-161-64.112-161-140 0-77.196 69.533-140 155-140h45.999c5.522 0 10-4.477 10-10s-4.478-10-10-10h-45.999c-96.495 0-175 71.776-175 160v90c0 91.661 88.083 160 181 160 46.072 0 89.556-16.22 122.439-45.669 30.638-27.427 60.03-44.356 89.857-51.754 71.001-17.613 118.704-60.844 118.704-107.577v-90c0-75.724-97.392-115-175-115zm155 205c0 36.791-42.568 73.045-103.518 88.164-33.072 8.204-65.254 26.608-98.385 56.267-29.21 26.161-67.955 40.569-109.097 40.569-87.271 0-161-64.112-161-140v-17.695c31.608 53.704 95.305 87.695 161 87.695 46.072 0 89.556-16.22 122.439-45.669 30.638-27.427 60.03-44.356 89.857-51.754 43.54-10.8 78.314-31.237 98.703-56.205v38.628z"/></g></g></svg>