<?xml version="1.0" encoding="iso-8859-1"?>
<!-- Generator: Adobe Illustrator 19.0.0, SVG Export Plug-In . SVG Version: 6.00 Build 0)  -->
<svg version="1.1" id="Layer_1" xmlns="http://www.w3.org/2000/svg" xmlns:xlink="http://www.w3.org/1999/xlink" x="0px" y="0px"
	 viewBox="0 0 512 512" style="enable-background:new 0 0 512 512;" xml:space="preserve">
<circle style="fill:#6BC9EF;" cx="256" cy="256" r="256"/>
<path style="fill:#59B8DE;" d="M509.226,293.746C492.796,404.91,404.91,492.796,293.746,509.226L148.26,363.735L363.74,148.26
	L509.226,293.746z"/>
<path style="fill:#FF8C8A;" d="M103.633,256c0-84.151,68.216-152.367,152.367-152.367c84.146,0,152.367,68.216,152.367,152.367
	c0,84.146-68.221,152.362-152.367,152.362C171.849,408.362,103.633,340.146,103.633,256z"/>
<path style="fill:#F8F8F8;" d="M165.184,256.006V256c0-11.778,9.632-21.405,21.405-21.405h138.827
	c11.772,0,21.405,9.627,21.405,21.405v0.006c0,11.772-9.632,21.399-21.405,21.399H186.589
	C174.817,277.405,165.184,267.778,165.184,256.006z"/>
<path style="fill:#D9D9DD;" d="M165.184,256.006V256c0-1.495,0.156-2.951,0.45-4.358c2.023,9.705,10.672,17.047,20.954,17.047
	h138.827c10.283,0,18.926-7.342,20.954-17.047c0.295,1.406,0.45,2.862,0.45,4.358v0.006c0,11.772-9.632,21.399-21.405,21.399
	H186.589C174.817,277.405,165.184,267.778,165.184,256.006z"/>
<g>
</g>
<g>
</g>
<g>
</g>
<g>
</g>
<g>
</g>
<g>
</g>
<g>
</g>
<g>
</g>
<g>
</g>
<g>
</g>
<g>
</g>
<g>
</g>
<g>
</g>
<g>
</g>
<g>
</g>
</svg>
