<svg height="512" viewBox="0 0 512 512" width="512" xmlns="http://www.w3.org/2000/svg"><g id="filled_outline" data-name="filled outline"><path d="m256 208v-64h-20a20 20 0 0 1 -20-20 20 20 0 0 1 20-20h20l-12-12a16.971 16.971 0 0 1 0-24 16.971 16.971 0 0 1 24 0l12 12v-16a24 24 0 0 1 24-24 24 24 0 0 1 24 24v16l12-12a16.971 16.971 0 0 1 24 0 16.971 16.971 0 0 1 0 24l-12 12h20a20 20 0 0 1 20 20 20 20 0 0 1 -20 20h-20v64z" fill="#5eae35"/><path d="m312 144a40 40 0 0 0 -40 40v8h80v-8a40 40 0 0 0 -40-40z" fill="#fb0200"/><path d="m136 200v-136a40 40 0 0 1 40-40 40 40 0 0 1 40 40v136z" fill="#ff8706"/><path d="m120 184h64v256h-64z" fill="#aa8561"/><path d="m120 440 32-32 32 32z" fill="#9f785b"/><path d="m184 184h-32v224l32 32h8v-256z" fill="#bb9063"/><path d="m184 184h184v256h-184z" fill="#d0b288"/><path d="m200 144a40 40 0 0 0 40 40h16a16 16 0 0 0 16-16 40 40 0 0 0 -40-40h-16a16 16 0 0 0 -16 16z" fill="#ffc933"/><path d="m228 288h-24a12 12 0 0 0 0-24h-84l28.686-28.686a11.314 11.314 0 0 0 3.314-8 11.313 11.313 0 0 0 -11.314-11.314 34.291 34.291 0 0 0 -22.318 8.256l-46.368 39.744h-56v80h56l56 16 56.556-7.07a8.5 8.5 0 0 0 -1.056-16.93h28.5a12 12 0 0 0 0-24h16a12 12 0 0 0 0-24z" fill="#f9cdaf"/><path d="m184.571 404.687c-.191 0-.38-.007-.571-.008v35.321h184v-152.157a202.358 202.358 0 0 1 -183.429 116.844z" fill="#ad8f6c"/><path d="m496 408h-88l-35.029-35.029a16.972 16.972 0 0 0 -12-4.971 16.971 16.971 0 0 0 -16.971 16.971v1.372a16.964 16.964 0 0 0 3.395 10.182l18.318 24.411a11.423 11.423 0 0 1 2.287 6.858v.188a12.006 12.006 0 0 1 -12 12.018h-107.274a16.725 16.725 0 0 0 -16.726 16.726 16.726 16.726 0 0 0 15.211 16.657l139.1 12.646a160.005 160.005 0 0 0 43.108-1.924l66.581-12.105z" fill="#f9cdaf"/><path d="m347.982 448a20.018 20.018 0 0 0 20.018-20.018 12.006 12.006 0 0 1 -12 12.018h-107.274a16.7 16.7 0 0 0 -14.25 8z" fill="#eabb9b"/><path d="m160 80h32v16h-32z"/><path d="m160 112h32v16h-32z"/><path d="m160 144h32v16h-32z"/><path d="m304 88h-16a16.019 16.019 0 0 1 -16 16v16a32.036 32.036 0 0 0 32-32z"/><path d="m344 128v-16a16.019 16.019 0 0 1 -16-16h-16a32.036 32.036 0 0 0 32 32z"/><path d="m427.992 476.233a152.1 152.1 0 0 1 -40.952 1.829l-139.1-12.646a8.726 8.726 0 0 1 .786-17.416h107.274a20.032 20.032 0 0 0 20-20.019v-.187a19.549 19.549 0 0 0 -3.889-11.66l-18.317-24.412a9.013 9.013 0 0 1 -1.794-5.379v-1.372a8.97 8.97 0 0 1 15.313-6.343l35.03 35.029a8 8 0 0 0 5.657 2.343h88v-16h-84.687l-32.685-32.687a25.377 25.377 0 0 0 -2.628-2.284v-181.029a8 8 0 0 0 -8-8h-8v-24h12a28 28 0 0 0 0-56h-.827a24.972 24.972 0 0 0 -35.318-35.051 32 32 0 0 0 -63.71 0 24.972 24.972 0 0 0 -35.318 35.051h-.827a27.838 27.838 0 0 0 -12 2.707v-34.707a48 48 0 0 0 -96 0v112h-8a8 8 0 0 0 -8 8v35.178l-42.959 36.822h-53.041v16h56a8 8 0 0 0 5.206-1.926l46.368-39.744a26.314 26.314 0 0 1 17.113-6.33 3.313 3.313 0 0 1 2.342 5.656l-28.686 28.687a8 8 0 0 0 5.657 13.657h84a4 4 0 0 1 0 8h-60a8 8 0 0 0 0 16h84a4 4 0 0 1 0 8h-84a8 8 0 0 0 0 16h68a4 4 0 0 1 0 8h-68a8 8 0 0 0 0 16h39.5a.5.5 0 0 1 .061.992l-54.935 6.867-54.426-15.551a8 8 0 0 0 -2.2-.308h-56v16h54.88l41.12 11.749v76.251h.019a7.943 7.943 0 0 0 7.981 8h105.6a24.716 24.716 0 0 0 20.892 33.35l139.099 12.65q7.593.692 15.209.691a168.085 168.085 0 0 0 30.054-2.71l66.577-12.105-2.862-15.742zm-219.992-332.233a8.009 8.009 0 0 1 8-8h16a32.036 32.036 0 0 1 32 32 8.009 8.009 0 0 1 -8 8h-16a32.036 32.036 0 0 1 -32-32zm28-32h20a8 8 0 0 0 5.657-13.657l-12-12a8.97 8.97 0 1 1 12.686-12.686l12 12a8 8 0 0 0 13.657-5.657v-16a16 16 0 0 1 32 0v16a8 8 0 0 0 13.657 5.657l12-12a8.97 8.97 0 1 1 12.686 12.686l-12 12a8 8 0 0 0 5.657 13.657h20a12 12 0 0 1 0 24h-20a8 8 0 0 0 -8 8v4.261a47.892 47.892 0 0 0 -67.028 2.97 48.078 48.078 0 0 0 -44.972-31.231h-7.3a12.01 12.01 0 0 1 11.3-8zm106.987 64h-61.974a32 32 0 0 1 61.974 0zm-198.987-112a32 32 0 0 1 64 0v57.376a24.039 24.039 0 0 0 -16 22.624 47.8 47.8 0 0 0 12.261 32h-60.261zm16 128h16v64h-16zm-19.313 16a42.285 42.285 0 0 0 -12.687 1.954v-17.954h16v16.305a19.354 19.354 0 0 0 -3.313-.305zm3.313 43.314v4.686h-4.687zm16 112.748 16-2v58.623l-16-16zm-31.008 3.876 15.008-1.876v38.624l-16 16v-52.686a8.043 8.043 0 0 0 .992-.062zm10.321 64.062 12.687-12.687 12.687 12.687zm52.687-73.384a16.512 16.512 0 0 0 8-14.118c0-.167 0-.333-.008-.5h12.008a20.01 20.01 0 0 0 19.532-24.312 20 20 0 0 0 -3.532-39.686h-4.4a20.014 20.014 0 0 0 -19.6-24h-12v-64h168v168.025a25 25 0 0 0 -24 24.946v1.372a25.109 25.109 0 0 0 5 14.983l18.316 24.41a3.452 3.452 0 0 1 .687 2.058v.187a4.014 4.014 0 0 1 -4.003 4.019h-164z"/></g></svg>